<svg width="194" height="22" viewBox="0 0 194 22" fill="none" xmlns="http://www.w3.org/2000/svg">
<path d="M0.420977 17V0.546978H6.91385C8.14322 0.546978 9.20696 0.767824 10.1051 1.20952C11.0105 1.64385 11.7062 2.2659 12.1921 3.07566C12.6853 3.88543 12.9319 4.84243 12.9319 5.94666C12.9319 7.05089 12.6816 8.00789 12.181 8.81766C11.6878 9.62006 10.9885 10.2421 10.083 10.6838C9.17752 11.1255 8.10642 11.3463 6.86968 11.3463H3.822V17H0.420977ZM3.822 8.49743H6.693C7.59111 8.49743 8.3015 8.26922 8.82416 7.81281C9.34683 7.34903 9.60817 6.72698 9.60817 5.94666C9.60817 5.15898 9.34683 4.53693 8.82416 4.08051C8.3015 3.6241 7.59111 3.39589 6.693 3.39589H3.822V8.49743ZM14.522 17V5.33933H17.658V7.32695H17.6911C17.9046 6.6276 18.2396 6.10861 18.696 5.76998C19.1524 5.43135 19.7671 5.26204 20.54 5.26204C20.7314 5.26204 20.9044 5.26572 21.059 5.27308C21.221 5.28044 21.3682 5.28412 21.5007 5.28412V8.05574C21.3829 8.04838 21.1879 8.03734 20.9155 8.02261C20.6431 8.00789 20.3707 8.00053 20.0984 8.00053C19.4285 8.00053 18.8727 8.22874 18.431 8.68515C17.9966 9.14157 17.7795 9.80778 17.7795 10.6838V17H14.522ZM28.2586 17.265C27.0808 17.265 26.0465 17.011 25.1557 16.5031C24.2723 15.9952 23.5804 15.2884 23.0798 14.383C22.5865 13.4701 22.3399 12.4027 22.3399 11.1807C22.3399 9.9587 22.5865 8.89127 23.0798 7.97844C23.5804 7.06561 24.2723 6.35523 25.1557 5.84728C26.0465 5.33197 27.0808 5.07432 28.2586 5.07432C29.4438 5.07432 30.4781 5.33197 31.3615 5.84728C32.2522 6.35523 32.9442 7.06561 33.4374 7.97844C33.938 8.89127 34.1883 9.9587 34.1883 11.1807C34.1883 12.3954 33.938 13.4591 33.4374 14.3719C32.9442 15.2848 32.2522 15.9952 31.3615 16.5031C30.4781 17.011 29.4438 17.265 28.2586 17.265ZM28.2586 14.6259C29.0537 14.6259 29.6941 14.3241 30.18 13.7204C30.6658 13.1094 30.9088 12.2629 30.9088 11.1807C30.9088 10.0912 30.6658 9.24095 30.18 8.62994C29.6941 8.01893 29.0537 7.71343 28.2586 7.71343C27.4709 7.71343 26.8342 8.01893 26.3483 8.62994C25.8624 9.24095 25.6195 10.0912 25.6195 11.1807C25.6195 12.2629 25.8624 13.1094 26.3483 13.7204C26.8342 14.3241 27.4709 14.6259 28.2586 14.6259ZM35.9882 21.6157V5.33933H39.2015V6.91838H39.2347C39.5954 6.31474 40.0702 5.862 40.6591 5.56018C41.2554 5.251 41.9327 5.0964 42.6909 5.0964C43.6847 5.0964 44.557 5.35406 45.3079 5.86936C46.0662 6.37731 46.6551 7.0877 47.0747 8.00053C47.5017 8.91336 47.7151 9.96606 47.7151 11.1586C47.7151 12.3733 47.5053 13.437 47.0857 14.3498C46.6661 15.2627 46.0772 15.9731 45.319 16.481C44.5681 16.989 43.6847 17.2429 42.6688 17.2429C41.0861 17.2429 39.9561 16.5804 39.2788 15.2553H39.2457V21.6157H35.9882ZM41.8296 14.5928C42.6173 14.5928 43.2467 14.2946 43.7178 13.6984C44.1963 13.0947 44.4356 12.2481 44.4356 11.1586C44.4356 10.0691 44.1963 9.22622 43.7178 8.62994C43.2467 8.02629 42.6173 7.72447 41.8296 7.72447C41.0051 7.72447 40.3426 8.03734 39.842 8.66307C39.3414 9.2888 39.0911 10.1206 39.0911 11.1586C39.0911 12.204 39.3414 13.0395 39.842 13.6652C40.3426 14.2836 41.0051 14.5928 41.8296 14.5928ZM54.8264 17.265C53.6485 17.265 52.6216 17.0037 51.7456 16.481C50.8769 15.9583 50.1997 15.2406 49.7138 14.3278C49.2353 13.4076 48.996 12.3586 48.996 11.1807C48.996 9.9955 49.239 8.9428 49.7248 8.02261C50.2181 7.10242 50.8953 6.38099 51.7566 5.85832C52.6179 5.33565 53.6044 5.07432 54.716 5.07432C55.8643 5.07432 56.8655 5.33197 57.7195 5.84728C58.5808 6.35523 59.2507 7.06561 59.7292 7.97844C60.215 8.88391 60.4579 9.92925 60.4579 11.1145V11.9868H52.1652C52.1946 12.8481 52.4486 13.5364 52.9271 14.0517C53.4056 14.567 54.0718 14.8247 54.9258 14.8247C55.5588 14.8247 56.0852 14.6885 56.5048 14.4161C56.9318 14.1437 57.2189 13.783 57.3661 13.334H60.3365C60.1966 14.1069 59.869 14.7879 59.3537 15.3768C58.8384 15.9657 58.1906 16.4295 57.4103 16.7681C56.6299 17.0994 55.7686 17.265 54.8264 17.265ZM52.1873 9.91085H57.3882C57.3072 9.18205 57.0348 8.60785 56.5711 8.18825C56.1146 7.76128 55.5184 7.54779 54.7822 7.54779C54.0534 7.54779 53.4608 7.76128 53.0044 8.18825C52.548 8.60785 52.2756 9.18205 52.1873 9.91085ZM62.2026 17V5.33933H65.3386V7.32695H65.3718C65.5853 6.6276 65.9202 6.10861 66.3766 5.76998C66.833 5.43135 67.4477 5.26204 68.2207 5.26204C68.4121 5.26204 68.5851 5.26572 68.7397 5.27308C68.9016 5.28044 69.0489 5.28412 69.1814 5.28412V8.05574C69.0636 8.04838 68.8685 8.03734 68.5961 8.02261C68.3237 8.00789 68.0514 8.00053 67.779 8.00053C67.1091 8.00053 66.5533 8.22874 66.1116 8.68515C65.6773 9.14157 65.4601 9.80778 65.4601 10.6838V17H62.2026ZM77.8054 5.33933V7.89011H75.4203V13.4002C75.4203 13.7977 75.4976 14.0738 75.6521 14.2284C75.8141 14.3756 76.1159 14.4492 76.5576 14.4492H77.8054V17H75.9061C74.6252 17 73.6793 16.7497 73.0683 16.2491C72.4646 15.7485 72.1628 14.9682 72.1628 13.9082V7.89011H70.1531V5.33933H72.1628V2.15915H75.4203V5.33933H77.8054ZM80.2899 21.6157V19.0428H81.7696C82.1597 19.0428 82.4468 18.9471 82.6309 18.7557C82.8223 18.5717 82.9953 18.2551 83.1499 17.8061L83.4701 16.9558L78.9869 5.33933H82.399L84.3535 11.1034C84.486 11.523 84.6148 11.9426 84.74 12.3622C84.8725 12.7818 85.0013 13.2014 85.1264 13.6211C85.2516 13.2014 85.3804 12.7818 85.5129 12.3622C85.6454 11.9353 85.7779 11.5157 85.9104 11.1034L87.876 5.33933H91.2549L86.1202 18.7999C85.7522 19.7716 85.2737 20.482 84.6847 20.9311C84.0958 21.3875 83.3486 21.6157 82.4432 21.6157H80.2899Z" fill="#3D73FF"/>
<path d="M92.7787 17V0.546978H96.3565L101.646 8.96121C101.837 9.27039 102.095 9.7084 102.419 10.2752C102.743 10.8421 103.066 11.42 103.39 12.0089C103.368 11.3684 103.354 10.7427 103.346 10.1317C103.339 9.51332 103.335 9.03114 103.335 8.68515V0.546978H106.725V17H103.136L98.3441 9.38082C98.1011 9.00538 97.7809 8.48271 97.3834 7.81281C96.9932 7.13555 96.5663 6.37731 96.1025 5.5381C96.1319 6.39939 96.1503 7.16499 96.1577 7.83489C96.1724 8.50479 96.1798 9.01642 96.1798 9.36977V17H92.7787ZM112.677 17.1988C111.514 17.1988 110.553 16.908 109.795 16.3264C109.044 15.7449 108.669 14.8725 108.669 13.7094C108.669 12.8334 108.878 12.1488 109.298 11.6555C109.718 11.1549 110.273 10.7905 110.965 10.5623C111.657 10.3341 112.408 10.1832 113.218 10.1096C114.285 9.99918 115.033 9.88876 115.46 9.77834C115.887 9.66791 116.1 9.42498 116.1 9.04955V8.97225C116.1 8.54528 115.931 8.19561 115.592 7.92323C115.254 7.65086 114.786 7.51467 114.19 7.51467C113.586 7.51467 113.097 7.65454 112.721 7.93427C112.346 8.21401 112.14 8.57841 112.103 9.02746H109.044C109.118 7.82753 109.611 6.87421 110.524 6.16751C111.437 5.45344 112.692 5.0964 114.289 5.0964C115.887 5.0964 117.123 5.45344 117.999 6.16751C118.875 6.87421 119.313 7.84962 119.313 9.09372V17H116.133V15.3547H116.089C115.78 15.9215 115.357 16.3706 114.819 16.7019C114.282 17.0331 113.568 17.1988 112.677 17.1988ZM113.582 14.9351C114.363 14.9351 114.981 14.729 115.438 14.3167C115.894 13.8971 116.122 13.3708 116.122 12.7377V11.5672C115.938 11.6703 115.633 11.766 115.206 11.8543C114.779 11.9353 114.304 12.0162 113.781 12.0972C113.222 12.1856 112.747 12.3475 112.357 12.5831C111.974 12.8113 111.783 13.1573 111.783 13.6211C111.783 14.0333 111.944 14.3572 112.268 14.5928C112.6 14.821 113.038 14.9351 113.582 14.9351ZM124.404 17L120.086 5.33933H123.498L125.42 11.1034C125.567 11.5598 125.711 12.0199 125.85 12.4837C125.99 12.9401 126.126 13.4002 126.259 13.864C126.392 13.4002 126.524 12.9401 126.657 12.4837C126.796 12.0199 126.936 11.5598 127.076 11.1034L128.975 5.33933H132.354L128.026 17H124.404ZM133.624 17V5.33933H136.882V17H133.624ZM135.247 3.87071C134.71 3.87071 134.265 3.70876 133.911 3.38485C133.558 3.05358 133.381 2.63765 133.381 2.13707C133.381 1.63648 133.558 1.22424 133.911 0.900331C134.265 0.569062 134.71 0.403428 135.247 0.403428C135.777 0.403428 136.219 0.569062 136.572 0.900331C136.926 1.22424 137.103 1.63648 137.103 2.13707C137.103 2.63765 136.926 3.05358 136.572 3.38485C136.219 3.70876 135.777 3.87071 135.247 3.87071ZM144.7 21.7703C143.043 21.7703 141.762 21.4243 140.857 20.7323C139.951 20.0403 139.418 19.1275 139.256 17.9938H142.392C142.51 18.4355 142.771 18.7741 143.176 19.0097C143.581 19.2526 144.089 19.3741 144.7 19.3741C145.495 19.3741 146.106 19.1569 146.533 18.7226C146.967 18.2883 147.184 17.6515 147.184 16.8123V15.0234H147.173C146.827 15.7081 146.356 16.2123 145.76 16.5362C145.171 16.8528 144.494 17.011 143.728 17.011C142.712 17.011 141.825 16.7571 141.067 16.2491C140.308 15.7412 139.72 15.0455 139.3 14.1621C138.888 13.2714 138.682 12.2445 138.682 11.0813C138.682 9.91085 138.891 8.87655 139.311 7.97844C139.738 7.08034 140.327 6.37731 141.078 5.86936C141.836 5.35406 142.712 5.0964 143.706 5.0964C144.457 5.0964 145.127 5.25836 145.716 5.58227C146.312 5.89881 146.798 6.38099 147.173 7.02881H147.184V5.33933H150.397V16.5473C150.397 17.7766 150.155 18.7741 149.669 19.5397C149.19 20.3127 148.524 20.8758 147.67 21.2292C146.816 21.5899 145.826 21.7703 144.7 21.7703ZM144.567 14.4051C145.392 14.4051 146.054 14.0996 146.555 13.4885C147.055 12.8775 147.306 12.0604 147.306 11.0372C147.306 10.0213 147.055 9.20782 146.555 8.59681C146.054 7.9858 145.392 7.6803 144.567 7.6803C143.779 7.6803 143.146 7.97476 142.668 8.56369C142.197 9.14525 141.961 9.96974 141.961 11.0372C141.961 12.1119 142.197 12.9438 142.668 13.5327C143.146 14.1143 143.779 14.4051 144.567 14.4051ZM156.272 17.1988C155.109 17.1988 154.148 16.908 153.39 16.3264C152.639 15.7449 152.264 14.8725 152.264 13.7094C152.264 12.8334 152.473 12.1488 152.893 11.6555C153.313 11.1549 153.868 10.7905 154.56 10.5623C155.252 10.3341 156.003 10.1832 156.813 10.1096C157.88 9.99918 158.628 9.88876 159.055 9.77834C159.482 9.66791 159.695 9.42498 159.695 9.04955V8.97225C159.695 8.54528 159.526 8.19561 159.187 7.92323C158.848 7.65086 158.381 7.51467 157.785 7.51467C157.181 7.51467 156.692 7.65454 156.316 7.93427C155.941 8.21401 155.735 8.57841 155.698 9.02746H152.639C152.713 7.82753 153.206 6.87421 154.119 6.16751C155.032 5.45344 156.287 5.0964 157.884 5.0964C159.482 5.0964 160.718 5.45344 161.594 6.16751C162.47 6.87421 162.908 7.84962 162.908 9.09372V17H159.728V15.3547H159.684C159.375 15.9215 158.952 16.3706 158.414 16.7019C157.877 17.0331 157.163 17.1988 156.272 17.1988ZM157.177 14.9351C157.958 14.9351 158.576 14.729 159.033 14.3167C159.489 13.8971 159.717 13.3708 159.717 12.7377V11.5672C159.533 11.6703 159.228 11.766 158.801 11.8543C158.374 11.9353 157.899 12.0162 157.376 12.0972C156.817 12.1856 156.342 12.3475 155.952 12.5831C155.569 12.8113 155.378 13.1573 155.378 13.6211C155.378 14.0333 155.539 14.3572 155.863 14.5928C156.195 14.821 156.633 14.9351 157.177 14.9351ZM171.908 5.33933V7.89011H169.523V13.4002C169.523 13.7977 169.6 14.0738 169.755 14.2284C169.917 14.3756 170.218 14.4492 170.66 14.4492H171.908V17H170.009C168.728 17 167.782 16.7497 167.171 16.2491C166.567 15.7485 166.265 14.9682 166.265 13.9082V7.89011H164.256V5.33933H166.265V2.15915H169.523V5.33933H171.908ZM178.787 17.265C177.609 17.265 176.575 17.011 175.684 16.5031C174.801 15.9952 174.109 15.2884 173.608 14.383C173.115 13.4701 172.869 12.4027 172.869 11.1807C172.869 9.9587 173.115 8.89127 173.608 7.97844C174.109 7.06561 174.801 6.35523 175.684 5.84728C176.575 5.33197 177.609 5.07432 178.787 5.07432C179.972 5.07432 181.007 5.33197 181.89 5.84728C182.781 6.35523 183.473 7.06561 183.966 7.97844C184.467 8.89127 184.717 9.9587 184.717 11.1807C184.717 12.3954 184.467 13.4591 183.966 14.3719C183.473 15.2848 182.781 15.9952 181.89 16.5031C181.007 17.011 179.972 17.265 178.787 17.265ZM178.787 14.6259C179.582 14.6259 180.223 14.3241 180.709 13.7204C181.194 13.1094 181.437 12.2629 181.437 11.1807C181.437 10.0912 181.194 9.24095 180.709 8.62994C180.223 8.01893 179.582 7.71343 178.787 7.71343C178 7.71343 177.363 8.01893 176.877 8.62994C176.391 9.24095 176.148 10.0912 176.148 11.1807C176.148 12.2629 176.391 13.1094 176.877 13.7204C177.363 14.3241 178 14.6259 178.787 14.6259ZM186.517 17V5.33933H189.653V7.32695H189.686C189.899 6.6276 190.234 6.10861 190.691 5.76998C191.147 5.43135 191.762 5.26204 192.535 5.26204C192.726 5.26204 192.899 5.26572 193.054 5.27308C193.216 5.28044 193.363 5.28412 193.496 5.28412V8.05574C193.378 8.04838 193.183 8.03734 192.91 8.02261C192.638 8.00789 192.366 8.00053 192.093 8.00053C191.423 8.00053 190.867 8.22874 190.426 8.68515C189.991 9.14157 189.774 9.80778 189.774 10.6838V17H186.517Z" fill="#1F2D54"/>
</svg>
